<mxfile host="app.diagrams.net" modified="2024-07-11T02:13:58.313Z" agent="Mozilla/5.0 (Macintosh; Intel Mac OS X 10.15; rv:127.0) Gecko/20100101 Firefox/127.0" version="24.6.4" etag="BPzV-TkzlK8wdtHjQnCe" type="github">
  <diagram name="Page-1" id="iLQZdJaUH4h36f0SHS_m">
    <mxGraphModel>
      <root>
        <mxCell id="0" />
        <mxCell id="1" parent="0" />
      </root>
    </mxGraphModel>
  </diagram>
</mxfile>
